# xmcd
#
# Track frame offsets:
# 150
# 10492
# 24670
# 35495
# 49763
# 61728
# 79052
# 86494
# 100268
# 111966
# 121691
# 132488
# 142881
# 154538
#
# Disc length: 2255 seconds
#
#
# Revision: 2
# Processed by: cddbd v1.5.2PL0 Copyright (c) Steve Scherf et al.
# Submitted via: FreeRIP 2.944 
#
DISCID=ad08cd0e
DTITLE=Various Artist - Country Ballads [CD 2)
DYEAR=2004
DGENRE=Country
TTITLE0=Dolly Parton - Release Me
TTITLE1=Lynn Anderson - Cry
TTITLE2=Billie Jo Spears - All I Have To Do Is Dream
TTITLE3=Skeeter Davis - Hopelessly Devoted To You
TTITLE4=Willie Nelson - The Last Letter
TTITLE5=Bobby Bare - Sylvia's Mother
TTITLE6=Buck Owens - Please Don't Take Her From Me
TTITLE7=Kingston Trio - Tom Dooley
TTITLE8=Gene Autry - Vaya Con Dios
TTITLE9=Ned Miller - From A Jack To A King
TTITLE10=Patsy Cline - I Cried All The Way To The Altar
TTITLE11=Dave Dudley - Seven Lonely Days
TTITLE12=Kenny Rogers - Poem For A Little Lady
TTITLE13=B.J. Thomas - I'm So Lonesome I Could Cry
EXTD=
EXTT0=
EXTT1=
EXTT2=
EXTT3=
EXTT4=
EXTT5=
EXTT6=
EXTT7=
EXTT8=
EXTT9=
EXTT10=
EXTT11=
EXTT12=
EXTT13=
PLAYORDER=
